<svg xmlns="http://www.w3.org/2000/svg" width="800" height="800" class="icon" viewBox="0 0 1024 1024"><path d="m625.6 516.8 19.2 81.6 104-38.4 4.8 14.4-110.4 40L560 824l-14.4-6.4 83.2-203.2-169.6-25.6 64 217.6c3.2 8-1.6 17.6-11.2 19.2s-17.6-1.6-19.2-11.2l-68.8-232L270.4 560l1.6-16 145.6 22.4-28.8-96L272 529.6l-14.4-28.8 129.6-65.6L480 217.6 254.4 499.2l-12.8-9.6L480 190.4l9.6 6.4 27.2 11.2-96 227.2 177.6 41.6-64-268.8 16-3.2 67.2 278.4 136 32c8 1.6 14.4 11.2 11.2 19.2-1.6 8-11.2 14.4-19.2 11.2zM608 512l-185.6-43.2 30.4 102.4 176 25.6zm-46.4-313.6 12.8-9.6 209.6 296-12.8 9.6zM768 588.8l12.8 9.6-201.6 240-12.8-9.6zm-278.4 240L478.4 840l-232-243.2 11.2-11.2z"/><path d="M336 448a64 64 0 1 0 128 0 64 64 0 1 0-128 0m248 160a56 56 0 1 0 112 0 56 56 0 1 0-112 0m-376 16c-44.8 0-80-35.2-80-80s35.2-80 80-80 80 35.2 80 80-35.2 80-80 80m0-32c27.2 0 48-20.8 48-48s-20.8-48-48-48-48 20.8-48 48 20.8 48 48 48m320 368c-44.8 0-80-35.2-80-80s35.2-80 80-80 80 35.2 80 80-35.2 80-80 80m0-32c27.2 0 48-20.8 48-48s-20.8-48-48-48-48 20.8-48 48 20.8 48 48 48m0-704c-44.8 0-80-35.2-80-80s35.2-80 80-80 80 35.2 80 80-35.2 80-80 80m0-32c27.2 0 48-20.8 48-48s-20.8-48-48-48-48 20.8-48 48 20.8 48 48 48m288 432c-44.8 0-80-35.2-80-80s35.2-80 80-80 80 35.2 80 80-35.2 80-80 80m0-32c27.2 0 48-20.8 48-48s-20.8-48-48-48-48 20.8-48 48 20.8 48 48 48"/></svg>