<svg width="480" height="640" viewBox="0 0 480 640" fill="none" xmlns="http://www.w3.org/2000/svg">
  <rect width="480" height="640" fill="transparent"/>
  <path d="M240 72C191.399 72 152 111.399 152 160C152 197.481 175.434 229.491 208.445 242.137C167.106 255.215 136 293.89 136 340V374C136 425.952 178.048 468 230 468H250C301.952 468 344 425.952 344 374V340C344 293.89 312.894 255.215 271.555 242.137C304.566 229.491 328 197.481 328 160C328 111.399 288.601 72 240 72Z" fill="#2B1D12"/>
  <path d="M128 540C128 496.922 162.922 462 206 462H274C317.078 462 352 496.922 352 540V556C352 568.15 342.15 578 330 578H150C137.85 578 128 568.15 128 556V540Z" fill="#2B1D12"/>
  <circle cx="206" cy="156" r="16" fill="#F2EAD8"/>
  <circle cx="274" cy="156" r="16" fill="#F2EAD8"/>
  <path d="M192 204C210.061 224.788 224.603 232 240 232C255.397 232 269.939 224.788 288 204" stroke="#F2EAD8" stroke-width="16" stroke-linecap="round"/>
</svg>
